<?xml version="1.0" encoding="utf-8"?>
<!-- Generator: Adobe Illustrator 16.0.0, SVG Export Plug-In . SVG Version: 6.00 Build 0)  -->
<!DOCTYPE svg PUBLIC "-//W3C//DTD SVG 1.1//EN" "http://www.w3.org/Graphics/SVG/1.1/DTD/svg11.dtd">
<svg version="1.1" id="Layer_1" xmlns="http://www.w3.org/2000/svg" xmlns:xlink="http://www.w3.org/1999/xlink" x="0px" y="0px"
	 width="512px" height="512px" viewBox="0 0 512 512" enable-background="new 0 0 512 512" xml:space="preserve">
<g>
	<path fill-rule="evenodd" clip-rule="evenodd" fill="#75A0D5" d="M19.833,247.811L276.268,10.632
		c3.717-3.462,9.573-3.208,13.039,0.509l150.4,162.661c3.432,3.702,3.219,9.562-0.499,12.994L182.774,423.944
		c-3.751,3.462-9.61,3.207-13.039-0.51L19.335,260.82C15.869,257.103,16.12,251.242,19.833,247.811z"/>
	<g>
		<path fill="#395A7C" d="M176.512,429.889c-3.549,0-6.956-1.487-9.349-4.082L16.766,263.196c-2.298-2.464-3.498-5.698-3.372-9.095
			c0.127-3.409,1.57-6.556,4.063-8.861L273.891,8.063c2.334-2.174,5.396-3.375,8.614-3.375c3.539,0,6.951,1.482,9.361,4.067
			l150.411,162.671c2.297,2.478,3.49,5.718,3.358,9.12c-0.132,3.397-1.571,6.53-4.054,8.822L185.15,426.514
			C182.792,428.691,179.725,429.889,176.512,429.889z M282.505,11.687c-1.441,0-2.81,0.535-3.852,1.506L22.21,250.38
			c-1.118,1.033-1.765,2.447-1.821,3.981c-0.057,1.523,0.479,2.969,1.506,4.072l150.41,162.625c1.075,1.165,2.607,1.831,4.207,1.831
			c1.448,0,2.829-0.539,3.889-1.517l256.432-237.146c1.107-1.023,1.749-2.426,1.809-3.952c0.06-1.531-0.474-2.985-1.5-4.093
			L286.736,13.517C285.656,12.358,284.109,11.687,282.505,11.687z"/>
	</g>
	<g opacity="0.25">
		<g>
			<defs>
				<rect id="SVGID_7_" x="111.898" y="249.249" width="259.72" height="177.153"/>
			</defs>
			<clipPath id="SVGID_2_">
				<use xlink:href="#SVGID_7_"  overflow="visible"/>
			</clipPath>
			<path clip-path="url(#SVGID_2_)" fill-rule="evenodd" clip-rule="evenodd" fill="#272323" d="M371.618,249.279L182.774,423.944
				c-3.751,3.492-9.573,3.252-13.039-0.51l-57.837-62.513V258.496c0-5.111,4.144-9.217,9.217-9.217H371.618z"/>
			
				<path clip-path="url(#SVGID_2_)" fill="none" stroke="#000000" stroke-width="0.216" stroke-linecap="round" stroke-linejoin="round" stroke-miterlimit="22.9256" d="
				M371.618,249.279L182.774,423.944c-3.751,3.492-9.573,3.252-13.039-0.51l-57.837-62.513V258.496c0-5.111,4.144-9.217,9.217-9.217
				H371.618z"/>
		</g>
	</g>
	<path fill-rule="evenodd" clip-rule="evenodd" fill="#75A0D5" d="M132.652,259.92h349.319c5.036,0,9.18,4.182,9.18,9.217v221.532
		c0,5.036-4.144,9.218-9.18,9.218H132.652c-5.073,0-9.217-4.182-9.217-9.218V269.137C123.436,264.102,127.579,259.92,132.652,259.92
		"/>
	<rect x="123.436" y="312.767" fill-rule="evenodd" clip-rule="evenodd" fill="#272323" width="367.716" height="44.692"/>
	<path fill-rule="evenodd" clip-rule="evenodd" fill="#E5595F" d="M382.799,415.146c16.254,0,29.402,13.189,29.402,29.436
		c0,16.231-13.148,29.406-29.402,29.406s-29.439-13.174-29.439-29.406C353.359,428.336,366.545,415.146,382.799,415.146"/>
	<path opacity="0.63" fill-rule="evenodd" clip-rule="evenodd" fill="#F59F35" d="M417.811,415.146
		c16.253,0,29.435,13.189,29.435,29.436c0,16.231-13.182,29.406-29.435,29.406c-16.255,0-29.44-13.174-29.44-29.406
		C388.37,428.336,401.556,415.146,417.811,415.146"/>
	<rect x="160.233" y="421.726" fill-rule="evenodd" clip-rule="evenodd" fill="#BCCBE2" width="134.824" height="46.162"/>
	<path fill="#395A7C" d="M204.889,443.593c0.606-2.323,1.037-4.646,1.252-6.864c-8.359,4.826-15.647,12.214-20.151,18.869
		c-2.106,3.072-3.608,5.995-4.319,8.348c-0.645,2.188-0.645,3.867,0.176,4.721c0.645,0.72,2,0.899,4.144,0.36
		C194.457,467.019,201.888,455.164,204.889,443.593 M144.477,451.162c-0.322,0.36-0.857,0.36-1.213,0.03
		c-0.355-0.315-0.355-0.884-0.034-1.214c0.071-0.06,27.792-28.821,51.442-31.249c5.286-0.57,8.823,1.319,10.932,4.676
		c1.537,2.458,2.286,5.65,2.396,9.247c0,0.36,0.033,0.795,0,1.154c5.249-2.578,10.825-4.122,16.358-3.942
		c13.969,0.51,14.826,7.434,11.721,14.613c2.537-1.574,4.894-1.813,6.538,0.54c0.926,1.364,2.144,1.139,3.462,0.21
		c1.646-1.139,3.432-3.282,5.041-5.17c1.929-2.293,3.57-4.332,4.93-4.332c1.176,0,1.893,1.079,1.893,3.821
		c0,3.253,0.963,4.107,2.214,4.107c0.858,0,1.858-0.284,2.822-0.569c1.036-0.285,2-0.57,2.858-0.57c1.57,0,2.607,0.72,2.607,3.223
		c0,5.86,42.015-6.399,42.119-6.43c0.465-0.149,0.93,0.135,1.071,0.57c0.108,0.464-0.142,0.929-0.569,1.064
		c-0.143,0.045-44.299,12.934-44.299,4.796c0-1.154-0.394-1.499-0.93-1.499c-0.646,0-1.466,0.21-2.357,0.494
		c-1.109,0.285-2.252,0.645-3.323,0.645c-2.214,0-3.931-1.214-3.931-5.831c0-1.498-0.07-2.067-0.176-2.067
		c-0.539,0-1.968,1.679-3.646,3.687c-1.646,1.993-3.536,4.211-5.358,5.5c-2.144,1.454-4.181,1.738-5.86-0.645
		c-1.465-2.113-3.964-0.974-6.571,1.424c-4.003,7.224-10.646,13.834-10.683,13.863c-0.322,0.36-0.857,0.36-1.214,0
		c-0.285-0.285-0.322-0.779-0.072-1.139c0.537-0.87,5.216-8.288,10.109-13.009c4.107-7.329,5.146-15.078-8.467-15.572
		c-5.539-0.225-11.144,1.454-16.359,4.182c-0.146,2.638-0.645,5.455-1.36,8.243c-3.144,12.08-11.072,24.505-20.185,26.693
		c-2.783,0.674-4.68,0.255-5.822-0.899c-1.215-1.349-1.356-3.567-0.536-6.354c0.786-2.503,2.356-5.605,4.537-8.828
		c4.823-7.074,12.685-14.973,21.721-19.889c0.034-0.719,0.034-1.364,0-2.038c-0.071-3.328-0.748-6.22-2.108-8.363
		c-1.784-2.818-4.785-4.391-9.323-3.927C171.809,422.79,144.549,451.086,144.477,451.162z"/>
	<path fill-rule="evenodd" clip-rule="evenodd" fill="#FBC958" d="M348.969,165.184l18.254,18.254c1.642,1.649,1.642,4.332,0,5.965
		L343,213.669c-1.68,1.633-4.321,1.633-5.966,0l-18.288-18.3c-1.646-1.634-1.646-4.317,0-5.92L343,165.184
		C344.645,163.535,347.289,163.535,348.969,165.184"/>
	<path fill-rule="evenodd" clip-rule="evenodd" fill="#E5B24E" d="M352.112,168.361l4.215,4.182l-6.894,6.895l3.678,3.687
		l6.896-6.895l4.177,4.211l-6.894,6.865l6.003,5.995l-4.179,4.211l-6.003-5.995l-4.215-4.211l-3.679-3.657l-4.181-4.211
		l-6.146-6.145l4.182-4.212l6.146,6.175L352.112,168.361z M351.969,204.661l-4.182,4.182l-6.002-6.01L334,210.596l-4.216-4.151
		l7.786-7.778l-3.68-3.717l-7.752,7.778l-4.216-4.182l7.79-7.778l-6.146-6.145l4.179-4.182l6.145,6.145l4.216,4.182l3.679,3.672
		l4.182,4.227L351.969,204.661z"/>
	<path fill-rule="evenodd" clip-rule="evenodd" fill="#608DBF" d="M221.857,118.242l48.621-45.622l8.217,7.854l-48.657,45.382
		L221.857,118.242z M176.918,160.433l36.975-34.726l8.075,7.718l-37.013,34.517L176.918,160.433z M115.791,217.775l53.195-49.909
		l7.895,7.569l-53.229,49.653L115.791,217.775z M57.452,272.54l50.373-47.301l7.752,7.434l-50.838,47.405L57.452,272.54z"/>
	<path fill="#395A7C" d="M481.972,263.892H132.652c-1.466,0-2.784,0.569-3.713,1.499c-0.967,0.959-1.573,2.293-1.573,3.747v221.532
		c0,1.439,0.606,2.758,1.573,3.717c0.929,0.93,2.286,1.544,3.713,1.544h349.319c1.427,0,2.75-0.614,3.679-1.544
		c0.964-0.929,1.571-2.278,1.571-3.717V269.137c0-1.394-0.607-2.712-1.499-3.642l-0.072-0.105
		C484.722,264.461,483.398,263.892,481.972,263.892 M132.652,255.963h349.319c3.57,0,6.895,1.499,9.288,3.852l0.214,0.285
		c2.252,2.368,3.642,5.575,3.642,9.037v221.532c0,3.582-1.499,6.864-3.855,9.292h-0.037h0.037c-2.394,2.353-5.718,3.852-9.288,3.852
		H132.652c-3.607,0-6.895-1.454-9.322-3.852c-2.356-2.398-3.86-5.71-3.86-9.292V269.137c0-3.597,1.504-6.894,3.86-9.277l0.034-0.045
		l0.037-0.03C125.795,257.462,129.082,255.963,132.652,255.963z"/>
	
		<path fill="none" stroke="#395A7C" stroke-width="0.216" stroke-linecap="round" stroke-linejoin="round" stroke-miterlimit="22.9256" d="
		M471.36,448.089v13.429 M471.36,378.067v51.452"/>
	
		<path fill="none" stroke="#395A7C" stroke-width="0.216" stroke-linecap="round" stroke-linejoin="round" stroke-miterlimit="22.9256" d="
		M407.948,170.325 M397.304,159.008 M384.297,145.145 M345.071,103.45"/>
</g>
</svg>
